<svg xmlns="http://www.w3.org/2000/svg" xmlns:xlink="http://www.w3.org/1999/xlink" xmlns:lucid="lucid" width="1808" height="812"><g transform="translate(436 0)" lucid:page-tab-id="0_0"><path d="M-500 0h2000v1000H-500z" fill="#fff"/><path d="M480 150.4a6 6 0 0 1 6-6h588a6 6 0 0 1 6 6V534a6 6 0 0 1-6 6H486a6 6 0 0 1-6-6z" stroke="#3a414a" stroke-width="2" fill="#fff"/><path d="M568.82 134.65c2.76-2.32 5.4-4.64 8.16-6.98.84-.8 1.9-1.63 2.75-2.46-.72-.9-1.9-1.6-3-1.97-2.03-.8-4.07-.54-6 .58-2.5 1.46-3.6 3.78-3.6 6.67.13 1.15.37 2.23.97 3.2.24.35.48.66.72.98m3.12 2.2c1.32.46 2.88.4 4.2.15.72-.3 2.5-1.06 3.1-.95h.13l.12.06c.35.2.7.47.95.9.48.94.24 1.88-.72 2.43l-.24.2c-3.48 2-7.2 1.7-10.56-.15-1.68-.88-2.88-2.23-3.84-3.83l-.24-.37c-2.15-3.87-1.9-7.9.6-11.56.84-1.26 1.92-2.26 3.24-3l.6-.3c3.24-1.88 6.72-1.77 10.07-.1 1.68.88 3.24 2.2 4.2 3.94l.12.32c.83 1.26-.13 2.37-1.1 3.12-1.2.88-2.27 1.94-3.35 2.86-2.5 2.1-4.9 4.2-7.3 6.3zm25.9-17.5h.36c1.08 0 1.8.74 1.8 1.82 0 1.52-1.44 1.9-2.64 1.9-1.68 0-3.24 1-4.32 2.1-1.43 1.38-2.03 3.15-2.03 5.13v8.8c0 1.04-.6 1.84-1.67 1.84h-.36c-.96 0-1.68-.8-1.68-1.83v-9.3c0-3.6 1.8-6.54 4.67-8.57 1.8-1.23 3.7-1.9 5.87-1.9zm-45.33 6.26c1.45-1.4 2.77-2.82 4.2-4.23.5-.37 1.93-2.03 2.53-2.03h.72v.03c.84.17 1.44.7 1.44 1.57v.38c0 .6-.6 1.3-1.1 1.74-.83.9-1.67 1.75-2.5 2.6l-4.45 4.47c1.92 1.9 3.84 3.8 5.64 5.72.6.54 1.07 1.1 1.55 1.6.24.2.48.43.6.72.24.23.24.5.24.8v.5c-.13.8-.73 1.47-1.57 1.47h-.36c-.6 0-1.32-.68-1.68-1.06-.85-.8-1.7-1.66-2.53-2.48l-2.76-2.75v4.4c0 1-.6 1.84-1.67 1.84h-.24c-1.1 0-1.7-.84-1.7-1.85v-24.77c0-1 .6-1.8 1.7-1.8h.23c1.08 0 1.68.8 1.68 1.8v11.33zm-11.86-2.45c-.48-.26-1.56-.35-2.16-.38-3-.1-5.15 1.6-6.47 4.3-.47.9-.6 1.9-.6 2.94 0 3.13 1.57 5.3 4.32 6.65 1.08.5 2.4.57 3.48.57.96 0 2.4-.6 3.24-1l.12-.08h.72v.03c.84.17 1.56.68 1.56 1.57v.37c0 2.24-4.08 2.73-5.64 2.84-5.52.38-9.6-2.63-11.15-7.84-.24-.88-.36-1.8-.36-2.74v-.72c0-3.95 2.03-7.1 5.4-9.1 1.54-.94 3.22-1.43 5.14-1.43h.72c1.92 0 3.72.6 5.28 1.67l.12.1.12.13c.12.3.36.63.36.97v.35c0 .94-.72 1.43-1.56 1.6l-.12.03h-.24c-.48-.03-1.68-.57-2.28-.8zm-33.1 6.92c0 2.78 1.32 4.8 3.72 6.27 1.08.66 2.28.97 3.6.97 2.64 0 4.67-1.4 6.1-3.7.73-1.1.97-2.33.97-3.6 0-2.6-1.2-4.54-3.35-5.97-1.2-.8-2.4-1.17-3.84-1.17-3 0-5.28 1.55-6.6 4.26-.36.95-.6 1.92-.6 2.95zm6.84-10.87h.48c4.2 0 7.43 2.06 9.47 5.75.84 1.46 1.2 3.06 1.2 4.75v.74c0 3.95-1.92 7.1-5.28 9.1-1.55.92-3.35 1.4-5.15 1.4h-.72c-3.96 0-7.08-1.94-9.12-5.35-.83-1.58-1.3-3.33-1.3-5.16v-.74c0-3.95 1.9-7.07 5.26-9.1 1.56-.94 3.36-1.4 5.16-1.4zm-30.7 10.87c0 2.86 1.44 5 3.96 6.38.96.55 2.04.86 3.23.86 2.76 0 4.8-1.3 6.24-3.68.73-1.12.97-2.32.97-3.6 0-2.5-1.08-4.4-3.12-5.87-1.2-.86-2.52-1.3-4.08-1.3-3 0-5.15 1.56-6.47 4.27-.48.95-.72 1.92-.72 2.95zm14.4-8.15v-7.7c0-1.03.7-1.83 1.67-1.83h.36c1.1 0 1.7.8 1.7 1.82v16.22c0 3.95-1.93 7.1-5.4 9.1-1.57.92-3.25 1.4-5.17 1.4h-.72c-3.94 0-7.06-1.94-8.98-5.35-.96-1.58-1.44-3.33-1.44-5.16v-.74c0-3.95 1.92-7.1 5.4-9.1 1.56-.94 3.24-1.4 5.03-1.4h.73c2.76 0 5.04 1.03 6.84 2.72zM549.18 61.55H560v10.98h5.36c2.52 0 5.15-.4 7.46-1.23 1.15-.4 2.52-.95 3.67-1.64-1.58-1.97-2.32-4.5-2.53-6.95-.3-3.4.32-7.77 2.63-10.36l1.15-1.3 1.26 1.03c3.48 2.73 6.32 6.55 6.74 10.9 4.1-1.22 8.92-.88 12.5 1.17l1.47.9-.73 1.5c-3.04 5.92-9.45 7.76-15.65 7.42-9.24 23.25-29.5 34.23-54 34.23-12.7 0-24.36-4.78-30.97-16.03l-.1-.2-.95-2c-2.2-4.96-2.95-10.35-2.53-15.8l.2-1.64h9.15V61.55h10.72V50.77h21.53V40h12.8v21.55z" stroke="#000" stroke-opacity="0" fill="#394d54"/><path d="M584.02 65.6c.7-5.6-3.53-10-6.05-12.1-3.03 3.5-3.53 12.53 1.2 16.4-2.6 2.32-8.16 4.44-13.8 4.44h-68.8c-.52 5.92.5 11.37 2.9 16.03l.72 1.43c.5.84 1.1 1.64 1.7 2.43 2.83.2 5.35.26 7.77.2 4.74-.1 8.48-.68 11.4-1.68.4-.1.9.1 1.1.53.1.42-.1.9-.5 1.05-.4.16-.8.27-1.2.38-2.32.64-4.75 1.12-7.97 1.33h-.2c-.1 0-.2 0-.3.05-1.22.05-2.63.05-3.94.05-1.5 0-3.03 0-4.64-.1l-.1.05c5.75 6.45 14.72 10.32 25.92 10.32 23.8 0 44-10.58 52.87-34.28 6.36.63 12.5-1 15.24-6.4-4.44-2.6-10.1-1.75-13.32-.1z" stroke="#000" stroke-opacity="0" fill="#00aada"/><path d="M584 65.6c.67-5.6-3.5-10-6.03-12.1-3 3.45-3.52 12.55 1.17 16.37-2.6 2.37-8.12 4.46-13.73 4.46h-64.74c-.25 9.05 3.1 15.97 9.04 20.1 4.7-.1 8.46-.68 11.4-1.68.4-.14.92.1 1 .55.17.4 0 .86-.5 1.04-.34.14-.76.23-1.17.37-2.27.64-4.95 1.14-8.13 1.37l-.08-.1c8.12 4.2 19.85 4.15 33.33-1.03 15.08-5.78 29.07-16.88 38.87-29.53-.17.06-.25.15-.42.2z" stroke="#000" stroke-opacity="0" fill="#24b8eb"/><path d="M496.73 81.52c.4 3.16 1.38 6.14 2.75 8.85l.73 1.42c.5.84 1.06 1.66 1.63 2.43 2.83.2 5.5.25 7.84.2 4.7-.1 8.5-.65 11.4-1.67.4-.15.9.08 1.06.52.16.43-.08.9-.5 1.05-.4.15-.8.27-1.2.37-2.26.67-4.93 1.12-8.1 1.32-.07.03-.3.03-.4.03-1.2.07-2.58.1-3.96.1-1.45 0-3-.03-4.7-.1 5.76 6.46 14.82 10.34 26.06 10.34 20.3 0 38.02-7.77 48.3-24.88h-80.9z" stroke="#000" stroke-opacity="0" fill="#008bb8"/><path d="M501.3 81.52c1.2 5.56 4.16 9.93 8.4 12.9 4.63-.08 8.46-.64 11.35-1.66.47-.14.94.1 1.08.5.13.45-.07.92-.47 1.08-.4.12-.8.26-1.2.36-2.3.67-5.05 1.14-8.2 1.33 8.12 4.16 19.82 4.1 33.26-1.08 8.13-3.13 15.93-7.8 22.98-13.43h-67.2z" stroke="#000" stroke-opacity="0" fill="#039bc6"/><path d="M513.73 64.1h.74v7.78h-.74V64.1zm-1.4 0h.75v7.78h-.76V64.1zm-1.42 0h.78v7.78h-.77V64.1zm-1.4 0h.76v7.78h-.76V64.1zm-1.42 0h.78v7.78h-.78V64.1zm-1.37 0h.74v7.78h-.73V64.1zm-.76-.77h9.3v9.33h-9.3v-9.33zM524.46 53.33h.74v7.8l-.74-.02v-7.77zm-1.4 0h.75v7.8l-.75-.02v-7.77zm-1.42 0h.77v7.8l-.76-.02v-7.77zm-1.4 0h.75v7.8l-.77-.02v-7.77zm-1.4 0h.75v7.8l-.77-.02v-7.77zm-1.4 0h.73v7.8l-.73-.02v-7.77zm-.77-.77h9.3v9.33h-9.3v-9.34z" stroke="#000" stroke-opacity="0" fill="#00acd3"/><path d="M524.46 64.1h.74v7.78h-.74V64.1zm-1.4 0h.75v7.78h-.75V64.1zm-1.42 0h.77v7.78h-.76V64.1zm-1.4 0h.75v7.78h-.77V64.1zm-1.4 0h.75v7.78h-.77V64.1zm-1.4 0h.73v7.78h-.73V64.1zm-.77-.77h9.3v9.33h-9.3v-9.33z" stroke="#000" stroke-opacity="0" fill="#20c2ef"/><path d="M535.2 64.1h.73v7.78h-.73V64.1zm-1.42 0h.76v7.78h-.76V64.1zm-1.4 0h.76v7.78h-.76V64.1zm-1.42 0h.77v7.78h-.77V64.1zm-1.4 0h.76v7.78h-.76V64.1zm-1.4 0h.75v7.78h-.73V64.1zm-.76-.77h9.3v9.33h-9.3v-9.33z" stroke="#000" stroke-opacity="0" fill="#00acd3"/><path d="M535.2 53.33h.73v7.8l-.73-.02v-7.77zm-1.42 0h.76v7.8l-.76-.02v-7.77zm-1.4 0h.76v7.8l-.76-.02v-7.77zm-1.42 0h.77v7.8l-.77-.02v-7.77zm-1.4 0h.76v7.8l-.76-.02v-7.77zm-1.4 0h.75v7.8l-.73-.02v-7.77zm-.76-.77h9.3v9.33h-9.3v-9.34zM545.93 64.1h.73v7.78h-.73V64.1zm-1.42 0h.77v7.78h-.76V64.1zm-1.4 0h.77v7.78h-.76V64.1zm-1.4 0h.76v7.78h-.77V64.1zm-1.4 0h.75v7.78h-.76V64.1zm-1.4 0h.74v7.78h-.74V64.1zm-.77-.77h9.3v9.33h-9.3v-9.33z" stroke="#000" stroke-opacity="0" fill="#20c2ef"/><path d="M545.93 53.33h.73v7.8l-.73-.02v-7.77zm-1.42 0h.77v7.8l-.76-.02v-7.77zm-1.4 0h.77v7.8l-.76-.02v-7.77zm-1.4 0h.76v7.8l-.77-.02v-7.77zm-1.4 0h.75v7.8l-.76-.02v-7.77zm-1.4 0h.74v7.8l-.74-.02v-7.77zm-.77-.77h9.3v9.33h-9.3v-9.34z" stroke="#000" stroke-opacity="0" fill="#00acd3"/><path d="M545.93 42.57h.73v7.78h-.73v-7.78zm-1.42 0h.77v7.78h-.76v-7.78zm-1.4 0h.77v7.78h-.76v-7.78zm-1.4 0h.76v7.78h-.77v-7.78zm-1.4 0h.75v7.78h-.76v-7.78zm-1.4 0h.74v7.78h-.74v-7.78zm-.77-.78h9.3v9.33h-9.3V41.8z" stroke="#000" stroke-opacity="0" fill="#20c2ef"/><path d="M556.66 64.1h.73v7.78h-.74V64.1zm-1.4 0h.75v7.78h-.75V64.1zm-1.42 0h.76v7.78h-.76V64.1zm-1.4 0h.75v7.78h-.77V64.1zm-1.42 0h.76v7.78h-.76V64.1zm-1.38 0h.73v7.78h-.74V64.1zm-.78-.77h9.3v9.33h-9.3v-9.33z" stroke="#000" stroke-opacity="0" fill="#00acd3"/><path d="M525.4 87.8c1.4 0 2.55 1.14 2.55 2.56 0 1.42-1.15 2.58-2.56 2.58-1.43 0-2.58-1.16-2.58-2.58 0-1.42 1.15-2.57 2.57-2.57" stroke="#000" stroke-opacity="0" fill="#d4edf1"/><path d="M525.4 88.52c.22 0 .45.04.65.12-.22.13-.37.37-.37.66 0 .4.33.74.75.74.28 0 .53-.16.66-.4.07.23.13.47.13.72 0 1.02-.83 1.84-1.84 1.84-1.03 0-1.85-.82-1.85-1.84s.82-1.84 1.84-1.84M480 82.45h119.37c-2.63-.66-8.24-1.56-7.28-4.97-4.8 5.5-16.13 3.85-19 1.14-3.22 4.67-21.84 2.9-23.15-.74-4.06 4.73-16.47 4.73-20.53 0-1.3 3.63-19.94 5.4-23.16.74-2.86 2.7-14.2 4.35-18.98-1.14.96 3.42-4.65 4.3-7.28 4.97" stroke="#000" stroke-opacity="0" fill="#394d54"/><path d="M532.2 106.33c-6.36-3.02-9.83-7.14-11.8-11.62-2.35.7-5.18 1.12-8.48 1.3-1.23.08-2.54.1-3.9.1-1.6 0-3.25-.04-5-.13 5.83 5.84 13 10.34 26.27 10.42.95 0 1.94-.02 2.9-.07z" stroke="#000" stroke-opacity="0" fill="#bfdbe0"/><path d="M522.8 98.85c-.9-1.2-1.75-2.7-2.37-4.14-2.37.7-5.2 1.12-8.5 1.3 2.27 1.24 5.5 2.38 10.85 2.85z" stroke="#000" stroke-opacity="0" fill="#d4edf1"/><path d="M999.9 325.47c-.5-2.07-2.2-4.46-5.8-4.46-.8 0-1.6.12-2.5.33-1.7.33-3.1.55-4.4.55 9.8-17.42 16.2-41.57 9.9-49.95-8.3-11.1-19.5-12.74-25.4-12.74h-.6c-2.2 0-4.5.32-6.8.86l-8.5 1.85c-1.1-.1-2.3-.2-3.5-.2h-.5c-3.8 0-7.2.87-10.3 2.4l-3-1.2c-4-1.75-10.2-3.7-16.2-3.7h-1.1c-5.9.2-11.1 2.6-14.8 6.85-4.7 5.33-6.8 13.06-6.3 23.07 0 .54 5.8 51.7 22.3 51.7h.2c2.1-.1 4.1-1 6-2.73 1.5 1.2 3.4 1.84 5.1 2.17 1.2.22 3.3.65 5.8.65 3 0 5.8-.65 8.1-1.85v8.82c.2 3.47.8 6.63 1.7 9.13 2.5 7.07 6.8 11 12.1 11h.7c4.4-.33 8.8-2.84 11.8-6.86 3.4-4.36 4.1-8.93 4.4-12.4V338.2h.3l1 .1h1.1c3.6 0 8-.97 11-2.38 2.8-1.3 9.3-5.12 8.2-10.45z" stroke="#000" stroke-opacity="0" stroke-width="2" fill="#fff"/><path d="M973.6 335.92v-1.42-1.1l.1-.1c.3-6.53 2.1-9.14 3.9-10.55-.2-.44-.5-.76-.8-1.2-.8-1.1-1.8-2.4-2.8-4.13l-.2-.44c-.2-.33-.6-1.1-1.1-1.96-2.8-5.33-8.6-16.32-4.6-23.3 1.7-3.04 5-4.78 9.8-5.2-2-5.78-9.2-19.6-25.7-19.93-14.3-.23-19 13.38-20.6 21.43 2.1-.87 4.5-1.4 6.7-1.4h.1c5.5 0 9.2 3.03 10.3 8.26.8 3.8 1.2 7.17 1.2 10.22-.1 6.75-1.4 10.23-2.5 13.38l-.4.98c-.3.87-.6 1.64-.9 2.4-.3.65-.5 1.3-.7 1.96 1.1.22 2 .65 2.6.98l.4.1c.1 0 .2.1.3.22 2 1.2 3.3 3.16 3.6 5.44.1 1.3.1 9.7 0 16.98.2 3.16.8 5.88 1.4 7.84 1 2.72 3.4 7.94 8.1 7.62 3.2-.22 6.4-2.18 8.4-4.9 2.3-2.94 3.1-6.2 3.4-9.8v-12.4z" stroke="#000" stroke-opacity="0" stroke-width="2" fill="#0277bd"/><path d="M931.2 323.3c-3.9-4.14-5.7-9.8-5-15.03.6-5 .3-9.9.1-12.5-.1-1-.2-1.64-.2-1.97h.1v-.1c.2-7.4 3-19.27 10.6-26.24-3.7-1.52-9.7-3.48-15.4-3.26-8.9.32-17.5 6.64-16.6 24.7.3 6.75 7.6 47.24 17.6 47.02 1.5-.1 3-1.1 4.5-2.94 2.4-3.05 4.7-5.77 6.4-7.73-.7-.54-1.5-1.2-2.1-1.96zm51.9-35.05c.1.33 0 .65 0 .98 0 2.28-.2 4.46-.4 6.64-.2 1.52-.4 3.15-.4 4.8-.1 1.62.1 3.14.4 4.88.5 3.8 1 8.27-1.9 13.4.6.75 1 1.4 1.4 2.06 11-18.5 15.4-40.48 11.2-46.03-6.4-8.5-15.2-11-22.2-10.77-2.2 0-4.2.32-5.9.65 12.1 6.1 17.4 19.15 17.8 23.4zm9.5 37.87c-6.4 1.42-9.4.65-10.9-.32-.2.2-.5.32-.7.54-.9.54-2.3 1.42-2.6 6.86.2 0 .4 0 .6.1l1 .1c3.2.12 7.3-.75 9.7-1.94 5.1-2.5 8-6.43 2.9-5.34zm-45.1 5.12c0-.76-.4-1.3-1.1-1.85l-.3-.12c-.8-.44-1.8-.87-3.3-.87h-.1c-.3.12-.6.12-.9.12h-.3c-1.2.87-2.8 1.52-6.7 2.4-7.1 1.84-2.9 4.13-.2 4.45 2.6.66 8.9 1.53 13-2.06 0-1.08 0-1.85-.1-2.06z" stroke="#000" stroke-opacity="0" stroke-width="2" fill="#0277bd"/><path d="M944.4 297.5c-.7.76-1.8 1.42-3 1.2-2-.33-3.5-2.72-3.4-3.7.1-.87 1.8-1.42 3.8-1.1.6.12 1.3.34 1.8.55-.8-1.63-2.2-2.6-4.3-2.83-3.7-.43-7.6 1.53-8.4 2.62 0 .32.1.65.1 1.08.2 2.83.6 8.17-.1 13.72-.5 3.6.9 7.83 3.7 10.88 1.8 1.96 3.9 3.15 5.9 3.48.3-1.2.8-2.28 1.3-3.48.2-.65.5-1.42.8-2.07l.4-1.1c1-2.82 2.1-5.86 2.1-11.63 0-2.3-.2-4.8-.7-7.62zm33.6 8.7c-.3-1.84-.5-3.7-.5-5.65.1-1.85.3-3.6.5-5.23l.3-3.92c-3.1.33-5.1 1.2-6.1 2.73.4-.1.9-.22 1.4-.22 2.1-.32 3.6.34 3.8 1.53.2.87-.6 1.74-.9 2.07-.7.65-1.5 1.1-2.3 1.2h-.5c-.8 0-1.6-.22-2.2-.66.2 4.8 3.7 11.32 5.4 14.6.3.64.6 1.2.9 1.62.9-2.72.5-5.22.2-8.05z" stroke="#000" stroke-opacity="0" stroke-width="2" fill="#0277bd"/><path d="M601.74 367.6l52.13-53.45c.33-.32.33-.76.1-1.2-3.14-4.46-9.02-5.22-11.2-8.16-6.42-8.82-8.05-13.83-10.77-13.5-.22 0-.33.1-.55.2l-18.83 19.4c-10.77 11.1-12.3 35.47-12.62 55.93 0 .32.1.54.33.76.43.42 1.08.42 1.4 0z" stroke="#000" stroke-opacity="0" stroke-width="1.17" fill="#017cee"/><path d="M708.4 366.28l-53.44-52.13c-.33-.32-.87-.32-1.2-.1-4.46 3.15-5.22 9.02-8.16 11.2-8.82 6.42-13.82 8.06-13.5 10.78 0 .2.1.32.22.54l19.38 18.83c11.1 10.77 35.47 12.3 55.93 12.62.33 0 .55-.1.77-.32.43-.44.43-.98 0-1.42z" stroke="#000" stroke-opacity="0" stroke-width="1.17" fill="#00ad46"/><path d="M651.7 355.4c-6.1-6-8.93-17.63 2.72-41.8-18.94 8.5-25.47 19.6-22.3 22.75z" stroke="#000" stroke-opacity="0" stroke-width="1.17" fill="#04d659"/><path d="M707.1 259.63l-52.14 53.43c-.33.33-.33.87-.1 1.2 3.15 4.46 9.02 5.22 11.2 8.16 6.42 8.82 8.06 13.82 10.78 13.5.2 0 .32-.1.54-.22l18.83-19.37c10.78-11.1 12.3-35.48 12.63-55.94 0-.34-.1-.55-.32-.77-.43-.44-1.08-.44-1.4 0z" stroke="#000" stroke-opacity="0" stroke-width="1.17" fill="#00c7d4"/><path d="M696.2 316.33c-5.98 6.1-17.62 8.92-41.78-2.72 8.5 18.94 19.6 25.47 22.74 22.32z" stroke="#000" stroke-opacity="0" stroke-width="1.17" fill="#11e1ee"/><path d="M600.43 260.93l53.44 52.13c.33.33.87.33 1.2.1 4.46-3.15 5.22-9.02 8.16-11.2 8.82-6.42 13.82-8.05 13.5-10.77 0-.23-.1-.34-.22-.56l-19.36-18.82c-11.1-10.78-35.48-12.3-55.94-12.63-.33 0-.55.1-.77.32-.43.43-.43 1.1 0 1.4z" stroke="#000" stroke-opacity="0" stroke-width="1.17" fill="#e43921"/><path d="M657.14 271.82c6.1 5.98 8.92 17.63-2.72 41.8 18.93-8.5 25.46-19.6 22.3-22.76z" stroke="#000" stroke-opacity="0" stroke-width="1.17" fill="#ff7557"/><path d="M612.63 310.9c5.98-6.1 17.63-8.94 41.8 2.7-8.5-18.93-19.6-25.46-22.76-22.2z" stroke="#000" stroke-opacity="0" stroke-width="1.17" fill="#0cb6ff"/><path d="M656.7 313.6c0 1.3-.98 2.3-2.28 2.3-1.3 0-2.3-1-2.3-2.3 0-1.3 1-2.28 2.3-2.28 1.3 0 2.28.98 2.28 2.3z" stroke="#000" stroke-opacity="0" stroke-width="1.17" fill="#4a4848"/><path d="M231.3 267.4c-4.1 0-7 .37-10.4.92-10.1 1.57-12 5-12 11.37v9.6h23.7v4.8h-36c-6.9 0-13 3.06-14.9 10.36-2.2 8.22-2.3 13.5 0 22.18 1.7 6.47 5.5 11.27 12.4 11.27h9.6v-12.37c0-7.2 7.1-14.33 15.2-14.33h19c6.6 0 13.2-4.52 13.2-10.62v-20.9c0-6-4.7-10.43-11.1-11.36.1-.1-4.7-.92-8.7-.92zm-13.1 9.7c2.1 0 3.9 1.67 3.9 3.7 0 2.03-1.8 3.6-3.9 3.6-2.2 0-4-1.57-4-3.6 0-2.03 1.8-3.7 4-3.7z" stroke="#000" stroke-opacity="0" stroke-width="2" fill="#0277bd"/><path d="M228.7 359.8c4.1 0 7-.36 10.4-.9 10.1-1.58 12-5 12-11.38v-9.6h-23.7v-4.8h36c6.9 0 13-3.06 14.9-10.36 2.2-8.23 2.3-13.5 0-22.18-1.7-6.47-5.5-11.28-12.4-11.28h-9.6v12.38c0 7.2-7.1 14.33-15.2 14.33h-19c-6.6 0-13.2 4.54-13.2 10.64v20.88c0 6 4.7 10.45 11.1 11.37-.1.08 4.7.92 8.7.92zm13.1-9.7c-2.1 0-3.9-1.65-3.9-3.7 0-2.02 1.8-3.6 3.9-3.6 2.2 0 4 1.58 4 3.6 0 2.05-1.8 3.7-4 3.7z" stroke="#000" stroke-opacity="0" stroke-width="2" fill="#ffc107"/><path d="M-130 365.8a6 6 0 0 1 6-6h228a6 6 0 0 1 6 6v48a6 6 0 0 1-6 6h-228a6 6 0 0 1-6-6z" fill="none"/><use xlink:href="#a" transform="matrix(1,0,0,1,-130,359.81450292645457) translate(38.58024691358024 34.44444444444444)"/><use xlink:href="#b" transform="matrix(1,0,0,1,-130,359.81450292645457) translate(97.77777777777777 34.44444444444444)"/><use xlink:href="#c" transform="matrix(1,0,0,1,-130,359.81450292645457) translate(169.38271604938274 34.44444444444444)"/><path d="M120 374.02a6 6 0 0 1 6-6h228a6 6 0 0 1 6 6v48a6 6 0 0 1-6 6H126a6 6 0 0 1-6-6z" fill="none"/><use xlink:href="#d" transform="matrix(1,0,0,1,120,368.02200000000005) translate(85.4320987654321 34.44444444444444)"/><path d="M520 386a6 6 0 0 1 6-6h228a6 6 0 0 1 6 6v48a6 6 0 0 1-6 6H526a6 6 0 0 1-6-6z" fill="none"/><use xlink:href="#e" transform="matrix(1,0,0,1,520,380) translate(46.049382716049394 34.44444444444444)"/><use xlink:href="#f" transform="matrix(1,0,0,1,520,380) translate(127.53086419753086 34.44444444444444)"/><path d="M845 386a6 6 0 0 1 6-6h198a6 6 0 0 1 6 6v48a6 6 0 0 1-6 6H851a6 6 0 0 1-6-6z" fill="none"/><use xlink:href="#g" transform="matrix(1,0,0,1,845,380) translate(61.203703703703695 34.44444444444444)"/><path d="M42 313.6h115.42" stroke="#3a414a" stroke-width="4" fill="none"/><path d="M42.05 315.58H40v-3.95h2.05z" stroke="#3a414a" stroke-width=".05" fill="#3a414a"/><path d="M173.7 313.6l-14.28 4.64v-9.27z" stroke="#3a414a" stroke-width="4" fill="#3a414a"/><path d="M302 320h154.26M302.05 320H300" stroke="#3a414a" stroke-width="4" fill="none"/><path d="M472.53 320l-14.27 4.63v-9.26z" stroke="#3a414a" stroke-width="4" fill="#3a414a"/><path d="M480.56 319.56h78.17M479 317.95V320" stroke="#3a414a" stroke-width="4" fill="none"/><path d="M575 319.56l-14.27 4.63v-9.27z" stroke="#3a414a" stroke-width="4" fill="#3a414a"/><path d="M739.17 313.18h117.75M739.22 313.18h-2.05" stroke="#3a414a" stroke-width="4" fill="none"/><path d="M873.18 313.18l-14.26 4.64v-9.27z" stroke="#3a414a" stroke-width="4" fill="#3a414a"/><path d="M-47.5 289c-4.6 0-9.58 4.57-9.58 9.18v40.43h9.57v-18.74h9.17v18.75h9.15V298.2c0-4.6-4.58-9.17-9.57-9.17h-8.76zm0 21.3v-12.56h9.17v12.55h-9.18zM-12.93 288.6c-5 0-9.57 4.6-9.57 9.16v40.85h9.15v-18.74h9.18c4.58 0 9.57-4.6 9.57-9.15v-12.5c0-4.6-4.58-9.2-9.57-9.2h-8.76v-.4zm-.42 21.66v-12.5h9.18v12.5h-9.18zM21.27 298.18v31.25H11.7v9.18H40v-9.17h-9.17v-31.25H40V289H11.7v9.18h9.57z" stroke="#000" stroke-opacity="0" fill="#5c86df"/><path d="M-47.5 319.9v-9.6h6.25l-6.25 9.6zM-13.3 319.9v-9.6h5.42l-5.42 9.6zM21.3 304.46v-6.25h9.58l-9.58 6.26z" stroke="#000" stroke-opacity="0" fill="#2f67d7"/><path d="M-60 283.6v60H40v-60z" stroke="#000" stroke-opacity="0" fill-opacity="0"/><defs><path d="M30 0v-248h187v28H63v79h144v27H63v87h162V0H30" id="h"/><path d="M141-36C126-15 110 5 73 4 37 3 15-17 15-53c-1-64 63-63 125-63 3-35-9-54-41-54-24 1-41 7-42 31l-33-3c5-37 33-52 76-52 45 0 72 20 72 64v82c-1 20 7 32 28 27v20c-31 9-61-2-59-35zM48-53c0 20 12 33 32 33 41-3 63-29 60-74-43 2-92-5-92 41" id="i"/><path d="M114-163C36-179 61-72 57 0H25l-1-190h30c1 12-1 29 2 39 6-27 23-49 58-41v29" id="j"/><path d="M59-47c-2 24 18 29 38 22v24C64 9 27 4 27-40v-127H5v-23h24l9-43h21v43h35v23H59v120" id="k"/><path d="M106-169C34-169 62-67 57 0H25v-261h32l-1 103c12-21 28-36 61-36 89 0 53 116 60 194h-32v-121c2-32-8-49-39-48" id="l"/><g id="a"><use transform="matrix(0.06172839506172839,0,0,0.06172839506172839,0,0)" xlink:href="#h"/><use transform="matrix(0.06172839506172839,0,0,0.06172839506172839,14.814814814814813,0)" xlink:href="#i"/><use transform="matrix(0.06172839506172839,0,0,0.06172839506172839,27.160493827160494,0)" xlink:href="#j"/><use transform="matrix(0.06172839506172839,0,0,0.06172839506172839,34.50617283950617,0)" xlink:href="#k"/><use transform="matrix(0.06172839506172839,0,0,0.06172839506172839,40.67901234567901,0)" xlink:href="#l"/></g><path d="M140-251c81 0 123 46 123 126C263-53 228-8 163 1c7 30 30 48 69 40v23c-55 16-95-15-103-61C56-3 17-48 17-125c0-80 42-126 123-126zm0 227c63 0 89-41 89-101s-29-99-89-99c-61 0-89 39-89 99S79-25 140-24" id="m"/><path d="M84 4C-5 8 30-112 23-190h32v120c0 31 7 50 39 49 72-2 45-101 50-169h31l1 190h-30c-1-10 1-25-2-33-11 22-28 36-60 37" id="n"/><path d="M143 0L79-87 56-68V0H24v-261h32v163l83-92h37l-77 82L181 0h-38" id="o"/><path d="M100-194c63 0 86 42 84 106H49c0 40 14 67 53 68 26 1 43-12 49-29l28 8c-11 28-37 45-77 45C44 4 14-33 15-96c1-61 26-98 85-98zm52 81c6-60-76-77-97-28-3 7-6 17-6 28h103" id="p"/><g id="b"><use transform="matrix(0.06172839506172839,0,0,0.06172839506172839,0,0)" xlink:href="#m"/><use transform="matrix(0.06172839506172839,0,0,0.06172839506172839,17.28395061728395,0)" xlink:href="#n"/><use transform="matrix(0.06172839506172839,0,0,0.06172839506172839,29.629629629629626,0)" xlink:href="#i"/><use transform="matrix(0.06172839506172839,0,0,0.06172839506172839,41.9753086419753,0)" xlink:href="#o"/><use transform="matrix(0.06172839506172839,0,0,0.06172839506172839,53.08641975308642,0)" xlink:href="#p"/></g><path d="M205 0l-28-72H64L36 0H1l101-248h38L239 0h-34zm-38-99l-47-123c-12 45-31 82-46 123h93" id="q"/><path d="M115-194c55 1 70 41 70 98S169 2 115 4C84 4 66-9 55-30l1 105H24l-1-265h31l2 30c10-21 28-34 59-34zm-8 174c40 0 45-34 45-75s-6-73-45-74c-42 0-51 32-51 76 0 43 10 73 51 73" id="r"/><path d="M24-231v-30h32v30H24zM24 0v-190h32V0H24" id="s"/><g id="c"><use transform="matrix(0.06172839506172839,0,0,0.06172839506172839,0,0)" xlink:href="#q"/><use transform="matrix(0.06172839506172839,0,0,0.06172839506172839,14.814814814814813,0)" xlink:href="#r"/><use transform="matrix(0.06172839506172839,0,0,0.06172839506172839,27.160493827160494,0)" xlink:href="#s"/></g><path d="M30-248c87 1 191-15 191 75 0 78-77 80-158 76V0H30v-248zm33 125c57 0 124 11 124-50 0-59-68-47-124-48v98" id="t"/><path d="M179-190L93 31C79 59 56 82 12 73V49c39 6 53-20 64-50L1-190h34L92-34l54-156h33" id="u"/><path d="M100-194c62-1 85 37 85 99 1 63-27 99-86 99S16-35 15-95c0-66 28-99 85-99zM99-20c44 1 53-31 53-75 0-43-8-75-51-75s-53 32-53 75 10 74 51 75" id="v"/><path d="M117-194c89-4 53 116 60 194h-32v-121c0-31-8-49-39-48C34-167 62-67 57 0H25l-1-190h30c1 10-1 24 2 32 11-22 29-35 61-36" id="w"/><g id="d"><use transform="matrix(0.06172839506172839,0,0,0.06172839506172839,0,0)" xlink:href="#t"/><use transform="matrix(0.06172839506172839,0,0,0.06172839506172839,14.814814814814813,0)" xlink:href="#u"/><use transform="matrix(0.06172839506172839,0,0,0.06172839506172839,25.925925925925924,0)" xlink:href="#k"/><use transform="matrix(0.06172839506172839,0,0,0.06172839506172839,32.098765432098766,0)" xlink:href="#l"/><use transform="matrix(0.06172839506172839,0,0,0.06172839506172839,44.44444444444444,0)" xlink:href="#v"/><use transform="matrix(0.06172839506172839,0,0,0.06172839506172839,56.79012345679012,0)" xlink:href="#w"/></g><path d="M96-169c-40 0-48 33-48 73s9 75 48 75c24 0 41-14 43-38l32 2c-6 37-31 61-74 61-59 0-76-41-82-99-10-93 101-131 147-64 4 7 5 14 7 22l-32 3c-4-21-16-35-41-35" id="x"/><g id="e"><use transform="matrix(0.06172839506172839,0,0,0.06172839506172839,0,0)" xlink:href="#q"/><use transform="matrix(0.06172839506172839,0,0,0.06172839506172839,14.814814814814813,0)" xlink:href="#r"/><use transform="matrix(0.06172839506172839,0,0,0.06172839506172839,27.160493827160494,0)" xlink:href="#i"/><use transform="matrix(0.06172839506172839,0,0,0.06172839506172839,39.50617283950617,0)" xlink:href="#x"/><use transform="matrix(0.06172839506172839,0,0,0.06172839506172839,50.61728395061728,0)" xlink:href="#l"/><use transform="matrix(0.06172839506172839,0,0,0.06172839506172839,62.962962962962955,0)" xlink:href="#p"/></g><path d="M101-234c-31-9-42 10-38 44h38v23H63V0H32v-167H5v-23h27c-7-52 17-82 69-68v24" id="y"/><path d="M24 0v-261h32V0H24" id="z"/><path d="M206 0h-36l-40-164L89 0H53L-1-190h32L70-26l43-164h34l41 164 42-164h31" id="A"/><g id="f"><use transform="matrix(0.06172839506172839,0,0,0.06172839506172839,0,0)" xlink:href="#q"/><use transform="matrix(0.06172839506172839,0,0,0.06172839506172839,14.814814814814813,0)" xlink:href="#s"/><use transform="matrix(0.06172839506172839,0,0,0.06172839506172839,19.691358024691354,0)" xlink:href="#j"/><use transform="matrix(0.06172839506172839,0,0,0.06172839506172839,27.03703703703703,0)" xlink:href="#y"/><use transform="matrix(0.06172839506172839,0,0,0.06172839506172839,33.20987654320987,0)" xlink:href="#z"/><use transform="matrix(0.06172839506172839,0,0,0.06172839506172839,38.08641975308642,0)" xlink:href="#v"/><use transform="matrix(0.06172839506172839,0,0,0.06172839506172839,50.432098765432094,0)" xlink:href="#A"/></g><path d="M135-143c-3-34-86-38-87 0 15 53 115 12 119 90S17 21 10-45l28-5c4 36 97 45 98 0-10-56-113-15-118-90-4-57 82-63 122-42 12 7 21 19 24 35" id="B"/><path d="M177-190C167-65 218 103 67 71c-23-6-38-20-44-43l32-5c15 47 100 32 89-28v-30C133-14 115 1 83 1 29 1 15-40 15-95c0-56 16-97 71-98 29-1 48 16 59 35 1-10 0-23 2-32h30zM94-22c36 0 50-32 50-73 0-42-14-75-50-75-39 0-46 34-46 75s6 73 46 73" id="C"/><g id="g"><use transform="matrix(0.06172839506172839,0,0,0.06172839506172839,0,0)" xlink:href="#t"/><use transform="matrix(0.06172839506172839,0,0,0.06172839506172839,14.814814814814813,0)" xlink:href="#v"/><use transform="matrix(0.06172839506172839,0,0,0.06172839506172839,27.160493827160494,0)" xlink:href="#B"/><use transform="matrix(0.06172839506172839,0,0,0.06172839506172839,38.27160493827161,0)" xlink:href="#k"/><use transform="matrix(0.06172839506172839,0,0,0.06172839506172839,44.44444444444445,0)" xlink:href="#C"/><use transform="matrix(0.06172839506172839,0,0,0.06172839506172839,56.79012345679013,0)" xlink:href="#j"/><use transform="matrix(0.06172839506172839,0,0,0.06172839506172839,64.13580246913581,0)" xlink:href="#p"/><use transform="matrix(0.06172839506172839,0,0,0.06172839506172839,76.4814814814815,0)" xlink:href="#B"/></g></defs></g></svg>